<?xml version="1.0" encoding="UTF-8"?><svg id="a" xmlns="http://www.w3.org/2000/svg" width="434.36" height="435.68" viewBox="0 0 434.36 435.68"><path d="m193.69,159.41l-60.9-5.25s-37.82-13.97-42.57,30.27c-1.69,15.61-.25,17.12-.92,25.63-1.79,22.5-1.77,70.88,20.81,130.54,26.09,68.89,84.26,82.7,103.34,85.4,4.01.58,8.07.51,12.03-.22,17.33-3.25,68.86-17.62,96.33-76.81,32.17-69.32,23.53-143.79,22.89-149.05-.03-.23-.06-.42-.05-.68l-1.15-19.09c-.46-7.78-3.56-15.38-9.41-20.55-7.1-6.3-19.38-11.09-40.11-5.11,0,0-72.73,7.29-100.26,4.92h-.03Z"/><path d="m249.08,158.17l50.2-.27s37.38-.08,19.83-32.7c-16.03-29.83-40.09-41.9-40.09-41.9,0,0-56.05-22.48-97.84-7.27-41.8,15.21-52.2,30.15-64.78,66.31,0,0-2.53,11.91,30.72,12.95,71.57,2.23,73.92,7.41,101.95,2.9v-.03Z" fill="#595959" stroke="#000" stroke-miterlimit="10" stroke-width="2"/><path d="m225.41,404.71s-17.6-185.31-.44-209.56c0,0,19.66,118.74.44,209.56Z" fill="#595959"/><path d="m205.46,163.54l39.84-.76s-2.23,32.36-19.94,34.59-19.91-33.8-19.91-33.8v-.03Z" fill="#494949"/><path d="m262.2,80.62c-7.3-14.29,19.98-18.26,28.95-19.8,7.92-1.17,17.8-1.81,25.76-3.03,13.97-2.52,26.88-9.76,35.51-21.26,6.88-9.07,11.27-20.14,12.71-31.59-2.67,31.72-24.49,54.29-56.23,57.89-7.95,1.14-40.81,5.16-41.8,13.84,0,.03.15.25,0,0l-4.9,3.92h0v.03Z"/><path d="m186.42,71.32c-.16.23,0,0,0,0,.09-.18.06-.34.09-.56-1.26-3.26-5.39-4.69-8.71-6.18-13.07-4.98-28.25-5.8-41.98-8.47-26.71-5.27-45.95-29.44-47.72-56.11,1.46,11.44,5.92,22.47,12.83,31.54,10.44,13.97,27.01,20.94,44,22.22,10.4,1.04,55.48,3.55,46.4,21.53l-4.94-3.92h0l.04-.06Z"/><path d="m343.76,201.78s17.54-3.95,19.4,18.6c1.87,22.55-19.45,4.75-19.45,4.75l.05-23.35Z" fill="#595959" stroke="#000" stroke-miterlimit="10" stroke-width=".75"/><path d="m355.13,232.46s9.09,1.09,3.96,38.96c0,0,2.81,25.79,16.32,32.74,13.52,6.93-2.84-70.89-11.98-77.81" stroke="#000" stroke-miterlimit="10" stroke-width=".75"/><path d="m381.01,304.43s-5.28-5.75,20.6-13.83c0,0,28.97,1.11,28.8,20.31,0,0-19.51-25.46-49.37-6.47h-.03Z" fill="#231f20" stroke="#000" stroke-miterlimit="10" stroke-width=".75"/><path d="m338.53,302.57s9.58,2.79,1.13,25.9c0,0-1.01,5.06-8.58-.84-7.58-5.87,7.49-25.08,7.49-25.08l-.04.03Z" stroke="#000" stroke-miterlimit="10" stroke-width=".75"/><path d="m331.59,327.83s1.4,29.79-11.88,45.38c0,0,4.6,19.43,9.88,4.46,5.28-14.97,8.68-46.09,8.68-46.09l-6.65-3.75h-.03Z" fill="#595959" stroke="#000" stroke-miterlimit="10" stroke-width=".75"/><path d="m330.27,376s25.98-2.39,56.35,12.53c0,0,10.79,5.53,12.69,9.53,0,0,3.11.82,5.6,4.75,2.48,3.93,10.22,14.57,10.65,18.59s.97,4.04.97,4.04l-.54,4.5-.18,4.49s-3.67-17.91-12.23-23.2l-5.39-5.26s-.12,1.95-6.61-2.02c-6.52-3.95-15.77-10.38-17.51-10.24,0,0,8.1,7.96-.69,6.83,0,0-14.99-9.49-18.39-8.7,0,0-24.2-.31-28.3-7.24,0,0,4.06-6.22,3.58-8.59h0Z"/><path d="m228.27,121.65s9.89-11.17,10.93-15.04c0,0,7.09-3.92,5.67,4.1l-5.6,9.47s1.64,5.61-2.65,10.68c-3.58,4.26-13.73-3.68-8.35-9.21h0Z"/><path d="m256.85,105.1s-8.1-3.03-1.57-11.58c0,0,3.8-3.81,8.02,1.39,0,0,12.49,3.07,12.16,7.47,0,0,3.7,8.04-9.74,1.77l-8.87.92v.03Z"/><ellipse cx="257.79" cy="118.96" rx="2.23" ry="6.13" transform="translate(-14.84 198.2) rotate(-40.98)"/><ellipse cx="286.22" cy="110.67" rx="2.23" ry="5.18" transform="translate(-2.44 214.82) rotate(-40.98)"/><path d="m269.29,113.79s5.42-1.83,9.49,6.85c0,0-2.01,9.86-8.3,2.13-6.29-7.73-1.19-8.98-1.19-8.98Z"/><path d="m252.4,138.4s16.6,1.09,17.59,3.8-17.37,6.84-26.29-.17c-8.92-7.04,8.7-3.59,8.7-3.59v-.03Z"/><path d="m284.1,128.94l3.28.59s-1.64-4.82,2.61-5.34,8.35,3.86,8.35,3.86c0,0-3.55,5.44,6.2,6.35,0,0,5.46,4.25-.7,5.74s-14.91-2.25-14.29-4.34-12.69,2.28-5.42-6.83l-.03-.04Z"/><path d="m209.59,119.68s-9.36-11.6-10.23-15.5c0,0-6.89-4.23-5.87,3.83l5.18,9.72s-1.88,5.55,2.17,10.79c3.4,4.4,13.86-3.05,8.74-8.81v-.03Z"/><path d="m181.78,101.89s8.23-2.68,2.08-11.5c0,0-3.62-3.99-8.06,1.02,0,0-12.63,2.51-12.48,6.93,0,0-4.04,7.88,9.64,2.19l8.82,1.33v.03Z"/><ellipse cx="180.17" cy="115.69" rx="6.13" ry="2.23" transform="translate(-27.83 166.49) rotate(-46.43)"/><ellipse cx="152.14" cy="106.13" rx="5.18" ry="2.23" transform="translate(-29.61 143.21) rotate(-46.43)"/><path d="m168.98,109.97s-5.33-2.07-9.79,6.41c0,0,1.55,9.93,8.19,2.5,6.64-7.43,1.6-8.91,1.6-8.91Z"/><path d="m184.71,135.34s-16.64.34-17.77,2.99,17.04,7.62,26.29,1-8.52-3.99-8.52-3.99Z"/><path d="m153.47,124.43l-3.29.46s1.88-4.73-2.37-5.44-8.52,3.46-8.52,3.46c0,0,3.3,5.59-6.48,6.05,0,0-5.65,4.02.44,5.77s14.99-1.59,14.48-3.71,12.56,2.85,5.71-6.59h.03Z"/><path d="m218.91,124.05s3.94,15.02,1.52,20.14c0,0-2.02,15.46-2.72-7.79l1.2-12.35Z"/><path d="m346.48,175.68s3.77,3.44,10.55.88,10.34-71.73,10.34-71.73c0,0-21.9,3.78-23.55,26.59l2.69,44.26h-.03Z" fill="#595959"/><path d="m337.54,178.98s4.5-2.23,9.99-3.89c0,0,7.45,1.55,11.3-.18,0,0-9.7,16.32-15,17.82l-6.28-13.74h0Z"/><path d="m367.78,104.64l-1.36,9.2s23.57,6.38,33.55,3.92c9.97-2.43,8.57-7.75,8.57-7.75,0,0,11.9,6.15,13.9,5.39,2-.76,9.59-7.94,11.92-25.32,0,0-7.11,8.56-11.85,14.06,0,0-3.71-16.23-10.05-8.91-6.34,7.32-44.65,9.41-44.65,9.41h-.03Z"/><path d="m91.47,202.49s-17.56-3.82-19.26,18.76c-1.7,22.58,19.47,4.61,19.47,4.61l-.21-23.36Z" fill="#595959" stroke="#000" stroke-miterlimit="10" stroke-width=".75"/><path d="m80.33,233.25s-9.07,1.18-3.65,38.97c0,0-2.58,25.81-16.06,32.86-13.49,7.05,2.31-70.89,11.37-77.92" stroke="#000" stroke-miterlimit="10" stroke-width=".75"/><path d="m54.99,305.42s5.23-5.78-20.71-13.69c0,0-28.96,1.34-28.65,20.52,0,0,19.31-25.59,49.32-6.84h.03Z" fill="#231f20" stroke="#000" stroke-miterlimit="10" stroke-width=".75"/><path d="m97.48,303.24s-9.56,2.85-.91,25.92c0,0,1.06,5.04,8.58-.91,7.52-5.95-7.67-25.01-7.67-25.01Z" stroke="#000" stroke-miterlimit="10" stroke-width=".75"/><path d="m104.62,328.46s-1.15,29.8,12.23,45.29c0,0-4.45,19.46-9.83,4.52-5.39-14.94-9.03-46.02-9.03-46.02,0,0,6.63-3.8,6.63-3.8Z" fill="#595959" stroke="#000" stroke-miterlimit="10" stroke-width=".75"/><path d="m106.3,376.6s-26-2.19-56.26,12.94c0,0-10.74,5.62-12.63,9.64,0,0-3.1.87-5.55,4.8-2.45,3.93-10.13,14.63-10.53,18.67-.4,4.04-.94,4.05-.94,4.05l.58,4.49.23,4.49s3.53-17.92,12.04-23.3l5.35-5.31s.13,1.96,6.6-2.05c6.47-4.02,15.7-10.48,17.4-10.4,0,0-8.04,8,.75,6.8,0,0,14.92-9.62,18.33-8.85,0,0,24.2-.48,28.23-7.47,0,0-4.13-6.17-3.65-8.55l.06.04Z"/><path d="m88.55,176.4s-3.77,3.46-10.53.94c-6.79-2.53-10.87-71.65-10.87-71.65,0,0,21.92,3.63,23.77,26.44l-2.34,44.28h-.03Z" fill="#595959"/><path d="m97.52,179.63s-4.52-2.19-10.01-3.81c0,0-7.42,1.6-11.29-.07,0,0,9.85,16.26,15.16,17.69l6.14-13.81Z"/><path d="m66.7,105.52l1.42,9.17s-23.53,6.55-33.52,4.17c-9.99-2.38-8.63-7.66-8.63-7.66,0,0-11.86,6.26-13.87,5.49s-9.65-7.86-12.1-25.22c0,0,7.16,8.51,11.97,13.99,0,0,3.58-16.26,9.98-8.99,6.4,7.27,44.72,9.07,44.72,9.07l.04-.03Z"/></svg>